<svg xmlns="http://www.w3.org/2000/svg" xmlns:xlink="http://www.w3.org/1999/xlink" version="1.1" x="0px" y="0px" viewBox="0 0 120 150" style="enable-background:new 0 0 120 120;" xml:space="preserve"><g>
<path fill="#a0a0a0" d="M70.2,56.9l-36-45.3c-0.9-0.9-2.5-1.6-3.7-1.6H5.4c-1.9,0-3.1,1.2-3.1,3.1v93.4c0,1.9,1.2,3.1,3.1,3.1l24.5,0.3   c1.6,0,3.1-0.6,4-1.9l36.3-45.3C71.5,60.9,71.5,58.4,70.2,56.9z"/>
<path fill="#a0a0a0" d="M116.8,56.9l-36.3-45c-1.6-1.9-4.3-2.5-6.5-0.6l-7.1,5.9c-2.2,1.6-2.5,4.7-0.6,6.5L95.7,60L66.2,96.6   c-1.6,1.9-1.2,5,0.6,6.5L74,109c2.2,1.6,4.7,1.2,6.5-0.6l36.3-45.3C118,60.6,118,58.4,116.8,56.9z"/></g>
</svg>